<svg width="170" height="115" viewBox="0 0 170 115" fill="none" xmlns="http://www.w3.org/2000/svg">
<path d="M13.1 91.5989L11.9802 87.3613H12.282L12.9064 89.7507C13.05 90.2981 13.1749 90.8059 13.2582 91.2076H13.2769C13.3786 90.7155 13.5064 90.2292 13.6599 89.7507L14.3571 87.3613H14.6464L15.2708 89.732C15.4019 90.2481 15.5476 90.7726 15.6101 91.2035H15.6288C15.7225 90.7435 15.8557 90.2856 16.0118 89.7465L16.7111 87.3634H17.0171L15.7475 91.601H15.4644L14.8233 89.1617C14.6901 88.6881 14.5811 88.2081 14.4966 87.7235H14.4778C14.3825 88.2085 14.256 88.6868 14.099 89.1554L13.383 91.601L13.1 91.5989Z" fill="black"/>
<path d="M19.8058 87.3613V89.222H22.1432V87.3613H22.4387V91.5989H22.1432V89.4864H19.8058V91.6052H19.5103V87.3613H19.8058Z" fill="black"/>
<path d="M28.8787 89.4368C28.8787 90.9332 27.9692 91.668 26.9868 91.668C25.9461 91.668 25.1406 90.8354 25.1406 89.5242C25.1406 88.1359 25.9732 87.293 27.0388 87.293C28.1045 87.293 28.8787 88.1234 28.8787 89.4368ZM25.4487 89.5117C25.4487 90.467 26.0002 91.4161 27.0076 91.4161C28.015 91.4161 28.5707 90.5045 28.5707 89.4555C28.5707 88.5626 28.0816 87.5448 27.0201 87.5448C25.9586 87.5448 25.4487 88.5251 25.4487 89.5117Z" fill="black"/>
<path d="M31.5803 87.3613H31.8759V91.3471H33.7678V91.5989H31.5803V87.3613Z" fill="black"/>
<path d="M38.3363 89.4864H36.64V91.3409H38.5382V91.5927H36.3445V87.3613H38.4362V87.6132H36.64V89.2408H38.3363V89.4864Z" fill="black"/>
<path d="M44.5448 87.3613H46.6262V87.6132H44.83V89.2991H46.4763V89.5488H44.83V91.5989H44.5344L44.5448 87.3613Z" fill="black"/>
<path d="M52.858 89.4368C52.858 90.9332 51.9463 91.668 50.966 91.668C49.9254 91.668 49.1199 90.8354 49.1199 89.5242C49.1199 88.1359 49.9524 87.293 51.016 87.293C52.0795 87.293 52.858 88.1234 52.858 89.4368ZM49.4258 89.5117C49.4258 90.467 49.9795 91.4161 50.9848 91.4161C51.99 91.4161 52.5499 90.5045 52.5499 89.4555C52.5499 88.5626 52.0608 87.5448 50.9972 87.5448C49.9337 87.5448 49.4258 88.5251 49.4258 89.5117Z" fill="black"/>
<path d="M59.0185 89.4368C59.0185 90.9332 58.1069 91.668 57.1266 91.668C56.0859 91.668 55.2783 90.8354 55.2783 89.5242C55.2783 88.1359 56.1109 87.293 57.1765 87.293C58.2421 87.293 59.0185 88.1234 59.0185 89.4368ZM55.5864 89.5117C55.5864 90.467 56.14 91.4161 57.1453 91.4161C58.1506 91.4161 58.7104 90.5045 58.7104 89.4555C58.7104 88.5626 58.2193 87.5448 57.1578 87.5448C56.0963 87.5448 55.5905 88.5251 55.5905 89.5117H55.5864Z" fill="black"/>
<path d="M61.7244 87.4196C62.0816 87.3618 62.4427 87.3319 62.8046 87.3301C63.5788 87.3301 64.1616 87.5382 64.5154 87.9087C64.6955 88.1045 64.8348 88.3341 64.9252 88.5842C65.0156 88.8344 65.0553 89.1 65.042 89.3656C65.0672 89.9522 64.8702 90.5267 64.4905 90.9745C64.1117 91.3908 63.4769 91.6218 62.661 91.6218C62.3483 91.6254 62.0357 91.6129 61.7244 91.5843V87.4196ZM62.0199 91.3471C62.2473 91.3721 62.476 91.3825 62.7047 91.3783C64.0617 91.3783 64.734 90.6186 64.734 89.3927C64.734 88.3166 64.1429 87.5819 62.7859 87.5819C62.5292 87.5809 62.273 87.6018 62.0199 87.6444V91.3471Z" fill="black"/>
<path d="M67.6001 91.1262C67.8751 91.311 68.1991 91.4096 68.5305 91.4092C69.1549 91.4092 69.5482 91.0513 69.5482 90.5288C69.5482 90.0522 69.3026 89.7754 68.6928 89.536C68.008 89.2988 67.6001 88.9449 67.6001 88.3684C67.6001 87.744 68.1142 87.2924 68.8322 87.2924C69.1234 87.2862 69.4108 87.3581 69.6648 87.5005L69.5524 87.7523C69.3286 87.6106 69.0679 87.5381 68.8031 87.5442C68.1183 87.5442 67.8873 87.9834 67.8873 88.3164C67.8873 88.7888 68.1558 89.0282 68.7656 89.2655C69.465 89.5485 69.8355 89.8628 69.8355 90.4976C69.8355 91.1324 69.3942 91.6673 68.4888 91.6673C68.1311 91.6683 67.7804 91.568 67.4773 91.378L67.6001 91.1262Z" fill="black"/>
<path d="M75.9255 87.3613H78.0194V87.6132H76.2211V89.2991H77.8674V89.5488H76.2211V91.5989H75.9255V87.3613Z" fill="black"/>
<path d="M84.2402 89.4368C84.2402 90.9332 83.3285 91.668 82.3482 91.668C81.3076 91.668 80.5 90.8354 80.5 89.5242C80.5 88.1359 81.3325 87.293 82.3982 87.293C83.4638 87.293 84.2402 88.1234 84.2402 89.4368ZM80.808 89.5117C80.808 90.467 81.3617 91.4161 82.367 91.4161C83.3723 91.4161 83.9321 90.5045 83.9321 89.4555C83.9321 88.5626 83.4409 87.5448 82.3795 87.5448C81.318 87.5448 80.808 88.5251 80.808 89.5117Z" fill="black"/>
<path d="M86.9419 87.4196C87.2413 87.3593 87.546 87.3293 87.8514 87.3301C88.4051 87.3301 88.7506 87.4508 88.9962 87.6818C89.1905 87.8849 89.2967 88.1564 89.2917 88.4374C89.2965 88.6881 89.2171 88.9333 89.0661 89.1336C88.9152 89.3339 88.7015 89.4779 88.4592 89.5426V89.555C88.7985 89.6633 89.0128 89.9838 89.1127 90.4542C89.1783 90.8455 89.2836 91.229 89.427 91.5989H89.1148C88.997 91.2634 88.9065 90.9188 88.8442 90.5687C88.7194 89.9588 88.455 89.682 87.8972 89.657H87.2354V91.5989H86.9419V87.4196ZM87.2354 89.4114H87.9097C88.5633 89.4114 88.9899 89.0472 88.9899 88.4873C88.9899 87.84 88.5112 87.5757 87.8452 87.5757C87.6405 87.5727 87.4361 87.5915 87.2354 87.6319V89.4114Z" fill="black"/>
<path d="M95.8584 91.5989L94.7449 87.3613H95.0467L95.6711 89.7507C95.8147 90.2981 95.9416 90.8059 96.0228 91.2076H96.0416C96.1442 90.7158 96.2721 90.2295 96.4245 89.7507L97.1072 87.3613H97.3944L98.0188 89.732C98.152 90.2481 98.2956 90.7726 98.3602 91.2035H98.3789C98.4726 90.7435 98.6037 90.2856 98.7619 89.7465L99.4591 87.3634H99.7672L98.4975 91.601H98.2082L97.5672 89.1617C97.4048 88.5373 97.3028 88.121 97.2404 87.7235H97.2279C97.1335 88.2084 97.0076 88.6868 96.8512 89.1554L96.1331 91.601L95.8584 91.5989Z" fill="black"/>
<path d="M102.562 87.3613V89.222H104.9V87.3613H105.195V91.5989H104.9V89.4864H102.562V91.6052H102.267V87.3613H102.562Z" fill="black"/>
<path d="M111.637 89.4368C111.637 90.9332 110.726 91.668 109.745 91.668C108.705 91.668 107.897 90.8354 107.897 89.5242C107.897 88.1359 108.73 87.293 109.795 87.293C110.861 87.293 111.637 88.1234 111.637 89.4368ZM108.205 89.5117C108.205 90.467 108.759 91.4161 109.764 91.4161C110.769 91.4161 111.329 90.5045 111.329 89.4555C111.329 88.5626 110.838 87.5448 109.776 87.5448C108.715 87.5448 108.205 88.5251 108.205 89.5117Z" fill="black"/>
<path d="M114.338 87.3613H114.634V91.3471H116.526V91.5989H114.338V87.3613Z" fill="black"/>
<path d="M121.095 89.4864H119.396V91.3409H121.295V91.5927H119.101V87.3613H121.195V87.6132H119.396V89.2408H121.095V89.4864Z" fill="black"/>
<path d="M127.597 87.3613V89.222H129.934V87.3613H130.23V91.5989H129.934V89.4864H127.597V91.6052H127.301V87.3613H127.597Z" fill="black"/>
<path d="M135.196 89.4864H133.499V91.3409H135.404V91.5927H133.208V87.3613H135.302V87.6132H133.504V89.2408H135.196V89.4864Z" fill="black"/>
<path d="M138.586 90.1101L138.066 91.5941H137.758L139.292 87.3564H139.581L141.107 91.5941H140.799L140.266 90.1101H138.586ZM140.17 89.8582L139.656 88.445C139.554 88.1494 139.498 87.9351 139.436 87.6957H139.423C139.361 87.9413 139.292 88.1619 139.203 88.4325L138.682 89.8582H140.17Z" fill="black"/>
<path d="M143.708 87.3613H144.004V91.3471H145.896V91.5989H143.708V87.3613Z" fill="black"/>
<path d="M148.781 87.6132H147.396V87.3613H150.464V87.6132H149.08V91.5989H148.781V87.6132Z" fill="black"/>
<path d="M153.147 87.3613V89.222H155.485V87.3613H155.78V91.5989H155.485V89.4864H153.147V91.6052H152.852V87.3613H153.147Z" fill="black"/>
<path d="M11.1623 28.8812C11.1623 27.8406 11.1311 26.9393 11.0999 26.2026H13.585L13.7141 27.1974H13.7453C14.3385 26.4273 15.221 26.0277 16.2949 26.0277C17.9475 26.0277 19.5501 27.4847 19.5501 30.051C19.5501 32.9399 17.6769 34.2698 15.9598 34.2698C15.0607 34.2698 14.3718 33.9181 14.0866 33.5164H14.0617V36.9693H11.1623V28.8812ZM14.0617 30.6462C14.0596 30.8078 14.0757 30.969 14.1095 31.127C14.16 31.3892 14.299 31.6261 14.5032 31.7981C14.7074 31.9701 14.9644 32.0667 15.2314 32.0719C16.0972 32.0719 16.6279 31.3185 16.6279 30.18C16.6279 29.0727 16.1784 28.2714 15.2647 28.2714C14.9806 28.281 14.7087 28.3887 14.4951 28.5762C14.2815 28.7636 14.1394 29.0192 14.0929 29.2996C14.0663 29.4198 14.0558 29.543 14.0617 29.6659V30.6462ZM22.4266 31.1582C22.5223 31.7826 23.4381 32.1365 24.4475 32.1365C25.1805 32.1493 25.911 32.0468 26.6121 31.8326L26.9805 33.7578C26.0393 34.1156 25.0381 34.2894 24.0313 34.2698C21.2548 34.2698 19.6854 32.7296 19.6854 30.2279C19.6854 28.3859 20.8718 26.0277 23.7753 26.0277C26.3249 26.0277 27.4135 27.9009 27.4135 30.0676C27.4165 30.4341 27.3795 30.7998 27.3031 31.1582H22.4266ZM24.7514 29.2018C24.7514 28.7522 24.5433 27.9197 23.6296 27.9197C22.7804 27.9197 22.4432 28.7022 22.3953 29.2018H24.7514ZM27.9088 28.8646C27.9088 27.6158 27.8755 26.8603 27.8443 26.2026H30.2961L30.3898 27.6304H30.4564C30.5941 27.1767 30.871 26.7779 31.2479 26.4903C31.6248 26.2027 32.0826 26.0409 32.5564 26.0277C32.7506 26.0179 32.9452 26.034 33.1351 26.0756V28.7813C32.8928 28.7254 32.6448 28.6982 32.3962 28.7002C31.5449 28.7002 30.9684 29.0561 30.8248 29.6971C30.7909 29.8607 30.7749 30.0275 30.7769 30.1946V34.0908H27.8984L27.9088 28.8646ZM34.5316 34.0929V28.3193H33.5201V26.213H34.5316V25.9403C34.5316 25.0745 34.8355 24.0005 35.5577 23.3594C36.1937 22.8135 37.0092 22.5221 37.8472 22.5415C38.2956 22.5309 38.7435 22.5791 39.1793 22.6851L39.1148 24.8975C38.8753 24.8291 38.627 24.7961 38.378 24.7997C37.7536 24.7997 37.3997 25.2514 37.3997 25.8279V26.213H38.8296V28.3297H37.4164V34.1033L34.5316 34.0929ZM47.1841 30.0676C47.1841 32.9399 45.1319 34.2698 42.9194 34.2698C40.5613 34.2698 38.7318 32.7629 38.7318 30.1966C38.7318 27.699 40.3844 26.034 43.0797 26.034C45.5399 26.0277 47.1737 27.6949 47.1737 30.0676H47.1841ZM41.7164 30.1488C41.7164 31.3185 42.1015 32.2301 43.0006 32.2301C43.7686 32.2301 44.2016 31.4101 44.2016 30.1488C44.2016 29.0582 43.8498 28.0674 42.9819 28.0674C42.0266 28.0633 41.706 29.106 41.706 30.1488H41.7164ZM47.4859 28.8646C47.4859 27.6158 47.4526 26.8603 47.4214 26.2026H49.8815L49.9773 27.6304H50.0418C50.1796 27.1767 50.4565 26.7779 50.8333 26.4903C51.2102 26.2027 51.668 26.0409 52.1419 26.0277C52.3353 26.0178 52.5292 26.0339 52.7184 26.0756V28.7813C52.4769 28.7253 52.2295 28.698 51.9816 28.7002C51.1324 28.7002 50.5538 29.0561 50.4102 29.6971C50.3745 29.8605 50.3578 30.0274 50.3602 30.1946V34.0908H47.4755L47.4859 28.8646ZM64.6757 32.0907C64.6743 31.7345 64.7448 31.3818 64.8828 31.0535C65.0209 30.7252 65.2237 30.4281 65.4791 30.18V29.4411C65.4791 27.262 64.5009 26.0277 62.8004 26.0277C62.3165 26.0201 61.8379 26.1301 61.4059 26.3482C60.9784 26.5736 60.606 26.8905 60.3153 27.2765H60.2674C59.9282 26.4919 59.1435 26.0277 58.134 26.0277C57.6815 26.0163 57.2329 26.1155 56.8274 26.3168C56.4219 26.5182 56.0716 26.8154 55.8071 27.1829H55.7426L55.6323 26.2026H53.2158C53.2471 26.9248 53.2804 27.8385 53.2804 28.8812V34.0846H56.086V29.5702C56.0719 29.3744 56.0996 29.1779 56.1672 28.9936C56.2262 28.8054 56.343 28.6405 56.5011 28.5225C56.6591 28.4044 56.8503 28.3391 57.0476 28.3359C57.6907 28.3359 57.9634 28.9145 57.9634 29.7929V34.0908H60.769V29.5868C60.7644 29.3908 60.7918 29.1954 60.8502 29.0082C60.9031 28.8164 61.017 28.647 61.1747 28.5257C61.3325 28.4044 61.5254 28.3378 61.7244 28.3359C62.3654 28.3359 62.6547 28.8958 62.6547 29.8761V34.0929H65.4708V34.0034C65.2147 33.7552 65.0114 33.4579 64.873 33.1292C64.7346 32.8005 64.6639 32.4473 64.6653 32.0907H64.6757ZM70.5555 32.2655C70.5523 32.8764 70.5892 33.4868 70.6658 34.0929H69.9665L69.8541 32.9877H69.8083C69.5387 33.3897 69.1727 33.7176 68.7436 33.9416C68.3146 34.1656 67.8362 34.2784 67.3523 34.2698C65.8142 34.2698 65.092 33.1792 65.092 32.1531C65.092 30.3736 66.6634 29.2996 69.7916 29.3308V29.1393C69.7916 28.3692 69.6459 26.8498 67.8185 26.8603C67.132 26.8463 66.4584 27.0487 65.8933 27.4389L65.6519 26.8748C66.3225 26.4457 67.1014 26.2161 67.8976 26.213C70.1267 26.213 70.5451 27.878 70.5451 29.2621L70.5555 32.2655ZM69.802 29.976C68.1182 29.9302 65.9037 30.1842 65.9037 32.0303C65.9037 33.1376 66.6426 33.635 67.4439 33.635C67.9381 33.6547 68.4256 33.5159 68.8353 33.2388C69.2449 32.9617 69.5552 32.5608 69.7209 32.0948C69.7696 31.9447 69.797 31.7885 69.802 31.6307V29.976ZM72.4121 24.7019V26.4024H74.6099V27.0101H72.4016V32.0053C72.4016 32.9856 72.7076 33.61 73.5256 33.61C73.8239 33.6147 74.1211 33.5719 74.406 33.4831L74.5038 34.0742C74.1622 34.212 73.7959 34.2779 73.4277 34.2677C73.1803 34.2819 72.933 34.2385 72.7051 34.141C72.4772 34.0435 72.2751 33.8945 72.1144 33.7058C71.7606 33.3062 71.6336 32.6651 71.6336 31.8784V27.0039H70.3328V26.3961H71.6336V24.985L72.4121 24.7019ZM75.3988 28.7106C75.3988 27.9426 75.3655 27.1412 75.3343 26.4044H76.0398L76.071 27.9592H76.1023C76.4394 26.9976 77.2428 26.2254 78.3002 26.2254C78.403 26.2281 78.5054 26.2399 78.6061 26.2608V26.9976C78.4853 26.9704 78.3614 26.9599 78.2377 26.9664C77.1783 26.9664 76.4249 27.878 76.2167 29.1143C76.1774 29.3581 76.1558 29.6043 76.1522 29.8511V34.1012H75.3988V28.7106ZM80.088 24.2065C80.0927 24.2927 80.0794 24.3789 80.049 24.4597C80.0187 24.5405 79.9719 24.6141 79.9117 24.6759C79.8514 24.7377 79.779 24.7864 79.6991 24.8188C79.6191 24.8512 79.5332 24.8667 79.447 24.8643C79.3648 24.8603 79.2841 24.84 79.2098 24.8048C79.1354 24.7695 79.0687 24.7199 79.0136 24.6588C78.9585 24.5976 78.916 24.5262 78.8885 24.4486C78.8611 24.371 78.8493 24.2887 78.8538 24.2065C78.8493 24.0351 78.9121 23.8687 79.0288 23.743C79.1455 23.6173 79.3069 23.5424 79.4782 23.5343C79.5624 23.5361 79.6454 23.5549 79.7221 23.5896C79.7989 23.6243 79.8678 23.6741 79.9248 23.7362C79.9817 23.7982 80.0256 23.8711 80.0536 23.9505C80.0817 24.0299 80.0934 24.1142 80.088 24.1982V24.2065ZM79.0932 34.1012V26.4003H79.8466V34.1012H79.0932ZM80.9893 28.2464C80.9893 27.5429 80.956 27.0122 80.9247 26.4044H81.6324L81.6969 27.7989H81.7281C81.974 27.3115 82.353 26.9038 82.8213 26.623C83.2895 26.3423 83.8277 26.2001 84.3735 26.213C85.1124 26.213 87.0501 26.5834 87.0501 29.4703V34.0888H86.2988V29.5431C86.2988 28.1465 85.7514 26.879 84.1633 26.879C83.6413 26.8901 83.1364 27.0672 82.7217 27.3845C82.3071 27.7018 82.0043 28.143 81.8572 28.644C81.7845 28.8672 81.7466 29.1002 81.7448 29.335V34.0971H80.9893V28.2464ZM48.9241 69.8171C48.9241 75.2785 49.0802 79.6493 49.2384 82.9295H37.1416L36.5172 77.8573H36.205C34.8001 79.9636 31.445 83.787 24.5766 83.787C15.9931 83.787 11 78.2465 11 67.1654V37.8435H25.0449V64.9009C25.0449 69.8171 26.685 72.4708 29.9631 72.4708C32.6147 72.4708 33.9426 70.6746 34.4879 69.1926C34.8001 68.6453 34.8792 67.9438 34.8792 67.1633V37.8435H48.9241V69.8171ZM52.9931 37.8435H67.0401V82.9274H52.9931V37.8435ZM86.7109 35.4416V46.9348H94.6699V57.2353H86.7005V65.8354C86.7005 70.4415 87.7932 72.3147 91.1483 72.3147C92.7884 72.3147 93.3337 72.3147 94.5034 72.0004V82.6922C92.8654 83.2396 89.7434 83.7849 86.1531 83.7849C82.0174 83.7849 78.5853 82.3009 76.556 80.2737C74.2124 77.9322 72.9636 74.1067 72.9636 68.256V57.2353H68.2098V46.9348H72.9636V39.3608L86.7109 35.4416ZM96.7783 57.4872C96.7783 51.3993 96.6222 50.1338 96.464 45.4341H108.484L108.95 51.47H109.264C111.294 45.6173 116.21 43.665 119.488 43.665C120.737 43.665 121.28 43.665 122.296 43.9002V57.0876C121.118 56.8168 119.913 56.6862 118.705 56.6984C114.57 56.6984 111.76 58.4134 111.058 61.5354C110.892 62.3313 110.814 63.143 110.825 63.956V82.9191H96.7721L96.7783 57.4872ZM156.788 73.5614C156.788 77.3869 156.944 80.9751 157.412 82.9274H144.77L143.987 79.5702H143.75C141.023 82.6173 137.194 83.7849 133.06 83.7849C125.255 83.7849 120.418 78.0883 120.418 71.6882C120.418 61.3876 129.626 56.8628 142.657 56.7837V56.4715C142.657 54.9105 141.488 53.1934 136.413 53.1934C132.355 53.1934 128.063 54.5983 125.565 56.0823L123.068 47.1075C125.565 45.8587 131.027 43.6733 138.988 43.6733C152.175 43.6733 156.779 51.0101 156.779 60.6071L156.788 73.5614ZM143.126 65.3692C137.429 65.3692 134.151 67.0072 134.151 70.3644C134.151 72.785 135.789 74.0339 138.13 74.0339C140.16 74.0339 142.345 72.6269 142.97 70.5205C143.102 69.8527 143.154 69.1715 143.126 68.4912V65.3692Z" fill="black"/>
<path d="M158.998 44.9869C158.998 45.1995 158.955 45.41 158.872 45.6059C158.789 45.8018 158.668 45.9792 158.516 46.1279C158.364 46.2765 158.184 46.3933 157.986 46.4715C157.788 46.5497 157.577 46.5877 157.364 46.5833C157.05 46.5763 156.744 46.4766 156.486 46.2967C156.228 46.1168 156.028 45.8646 155.913 45.5719C155.797 45.2792 155.771 44.9588 155.837 44.6511C155.902 44.3433 156.058 44.0618 156.283 43.8419C156.508 43.6219 156.793 43.4733 157.102 43.4147C157.411 43.3561 157.731 43.39 158.021 43.5123C158.311 43.6346 158.558 43.8397 158.732 44.102C158.906 44.3644 158.999 44.6722 158.998 44.9869ZM156.211 44.9869C156.222 45.2131 156.3 45.431 156.433 45.6137C156.567 45.7963 156.752 45.9355 156.964 46.0141C157.177 46.0926 157.408 46.107 157.628 46.0554C157.849 46.0039 158.049 45.8886 158.205 45.724C158.36 45.5595 158.464 45.3528 158.503 45.1297C158.542 44.9066 158.515 44.677 158.424 44.4694C158.334 44.2618 158.184 44.0853 157.994 43.962C157.804 43.8386 157.582 43.7738 157.356 43.7755C157.2 43.7778 157.047 43.8116 156.904 43.8747C156.762 43.9378 156.633 44.0291 156.527 44.143C156.421 44.2569 156.339 44.3911 156.285 44.5375C156.232 44.684 156.209 44.8396 156.218 44.9952L156.211 44.9869ZM157.162 45.7258H156.709V44.2688C156.923 44.2327 157.139 44.2139 157.356 44.2126C157.56 44.19 157.766 44.2323 157.945 44.3333C157.997 44.3672 158.038 44.4141 158.066 44.4693C158.094 44.5244 158.107 44.586 158.103 44.6476C158.103 44.7954 157.966 44.9244 157.77 44.9806V44.9994C157.85 45.0259 157.92 45.0747 157.973 45.14C158.026 45.2053 158.059 45.2843 158.068 45.3678C158.085 45.4889 158.119 45.6072 158.168 45.7195H157.674C157.621 45.6214 157.584 45.5152 157.564 45.4052C157.562 45.375 157.554 45.3455 157.541 45.3184C157.527 45.2913 157.508 45.2673 157.485 45.2479C157.462 45.2284 157.435 45.2138 157.406 45.2051C157.377 45.1964 157.347 45.1936 157.316 45.1971H157.169L157.162 45.7258ZM157.179 44.8932H157.31C157.483 44.8932 157.587 44.8287 157.587 44.7163C157.587 44.6039 157.483 44.5311 157.327 44.5311C157.273 44.5311 157.217 44.5311 157.179 44.5311V44.8932Z" fill="black"/>
</svg>
